<svg width="64" height="64" viewBox="0 0 64 64" fill="none" xmlns="http://www.w3.org/2000/svg">
<rect width="64" height="64" rx="32" fill="#E1E7ED"/>
<path d="M36.9827 19.5H26.5077C21.9577 19.5 19.2452 22.2125 19.2452 26.7625V37.225C19.2452 41.7875 21.9577 44.5 26.5077 44.5H36.9702C41.5202 44.5 44.2327 41.7875 44.2327 37.2375V26.7625C44.2452 22.2125 41.5327 19.5 36.9827 19.5ZM29.1327 37.2375C29.1327 38.0375 28.4827 38.6875 27.6702 38.6875C26.8702 38.6875 26.2202 38.0375 26.2202 37.2375V33.1625C26.2202 32.3625 26.8702 31.7125 27.6702 31.7125C28.4827 31.7125 29.1327 32.3625 29.1327 33.1625V37.2375ZM37.2702 37.2375C37.2702 38.0375 36.6202 38.6875 35.8202 38.6875C35.0077 38.6875 34.3577 38.0375 34.3577 37.2375V26.7625C34.3577 25.9625 35.0077 25.3125 35.8202 25.3125C36.6202 25.3125 37.2702 25.9625 37.2702 26.7625V37.2375Z" fill="#1AAB7B"/>
</svg>
