<svg width="64" height="64" viewBox="0 0 64 64" fill="none" xmlns="http://www.w3.org/2000/svg">
<rect width="64" height="64" rx="32" fill="#E1E7ED"/>
<path d="M41.1702 25.175L37.3327 21.3375C36.1577 20.1625 34.5702 19.5 32.9077 19.5H26.7452C22.9952 19.5 20.4952 22 20.4952 25.75V38.25C20.4952 42 22.9952 44.5 26.7452 44.5H36.7452C40.4952 44.5 42.9952 42 42.9952 38.25V29.5875C42.9952 27.925 42.3327 26.3375 41.1702 25.175ZM29.2827 38.8375C29.6452 39.2 29.6452 39.8 29.2827 40.1625C29.0952 40.35 28.8577 40.4375 28.6202 40.4375C28.3827 40.4375 28.1452 40.35 27.9577 40.1625L25.4577 37.6625C25.0952 37.3 25.0952 36.7 25.4577 36.3375L27.9577 33.8375C28.3202 33.475 28.9202 33.475 29.2827 33.8375C29.6452 34.2 29.6452 34.8 29.2827 35.1625L27.4452 37L29.2827 38.8375ZM38.0327 37.6625L35.5327 40.1625C35.3452 40.35 35.1077 40.4375 34.8702 40.4375C34.6327 40.4375 34.3952 40.35 34.2077 40.1625C33.8452 39.8 33.8452 39.2 34.2077 38.8375L36.0452 37L34.2077 35.1625C33.8452 34.8 33.8452 34.2 34.2077 33.8375C34.5702 33.475 35.1702 33.475 35.5327 33.8375L38.0327 36.3375C38.3952 36.7 38.3952 37.3 38.0327 37.6625Z" fill="#1AAB7B"/>
</svg>
