<svg width="64" height="64" viewBox="0 0 64 64" fill="none" xmlns="http://www.w3.org/2000/svg">
<rect width="64" height="64" rx="32" fill="#E1E7ED"/>
<path d="M33.5826 26.2625L36.6576 24.75C37.0326 24.5625 37.1326 24.075 36.8451 23.775C35.7326 22.55 34.6076 21.525 33.7076 20.75C33.2951 20.4 32.6826 20.6875 32.6826 21.225V25.7C32.6826 26.1625 33.1701 26.4625 33.5826 26.2625Z" fill="#1AAB7B"/>
<path d="M32.6826 41.675V43.7375C32.6826 44.1125 33.0201 44.425 33.3951 44.3625C36.8076 43.8 39.6576 41.5125 41.0076 38.4375C41.2451 37.9125 40.6701 37.3875 40.1451 37.6375L33.0326 41.125C32.8201 41.225 32.6826 41.4375 32.6826 41.675Z" fill="#1AAB7B"/>
<path d="M30.8076 21.2C30.8076 20.6625 30.1951 20.375 29.7826 20.7125C26.8326 23.1875 21.5951 28.4 21.6201 34.375C21.6201 39.4 25.2951 43.5625 30.0951 44.3625C30.4701 44.425 30.8076 44.1125 30.8076 43.7375V21.2Z" fill="#1AAB7B"/>
<path d="M33.5452 32.5875L40.1577 29.8125C40.4952 29.6625 40.6577 29.275 40.4952 28.95C40.0327 28.0375 39.4952 27.15 38.9077 26.325C38.7327 26.075 38.4077 26 38.1327 26.125L33.0202 28.6125C32.8077 28.7125 32.6702 28.9375 32.6702 29.175V32.0125C32.6827 32.45 33.1327 32.7625 33.5452 32.5875Z" fill="#1AAB7B"/>
<path d="M41.5326 34.8875C41.7326 34.7875 41.8576 34.6 41.8576 34.3875C41.8576 33.5875 41.7576 32.8 41.5826 32.025C41.4951 31.65 41.0826 31.45 40.7326 31.6L33.0576 34.875C32.8326 34.975 32.6826 35.2 32.6826 35.45V38.2C32.6826 38.6625 33.1701 38.9625 33.5826 38.7625L40.9576 35.175L41.5326 34.8875Z" fill="#1AAB7B"/>
</svg>
