<svg width="64" height="64" viewBox="0 0 64 64" fill="none" xmlns="http://www.w3.org/2000/svg">
<rect width="64" height="64" rx="32" fill="#E1E7ED"/>
<path d="M43.0452 33.6L41.8952 32.475L32.2077 42.15L33.3702 43.3125C34.3452 44.2875 35.3577 44.775 36.3577 44.775C37.3577 44.775 38.3702 44.2875 39.3452 43.3125L43.0452 39.6125C45.0327 37.6125 45.0327 35.6 43.0452 33.6Z" fill="#1AAB7B"/>
<path d="M30.1077 20.6625C28.1452 18.7 26.0827 18.7 24.1202 20.6625L20.4077 24.3625C18.4577 26.325 18.4577 28.3875 20.4077 30.35L21.5577 31.5L31.2452 21.8125L30.1077 20.6625Z" fill="#1AAB7B"/>
<path d="M44.0077 21.925C42.3702 26.0125 38.6327 31.35 35.0702 34.8375C34.5577 31.6125 31.9827 29.0875 28.7327 28.6375C32.2327 25.0625 37.6077 21.275 41.7077 19.625C42.4327 19.35 43.1577 19.5625 43.6077 20.0125C44.0827 20.4875 44.3077 21.2 44.0077 21.925Z" fill="#1AAB7B"/>
<path d="M33.9702 35.8625C33.7202 36.075 33.4702 36.2875 33.2202 36.4875L30.9827 38.275C30.9827 38.2375 30.9702 38.1875 30.9702 38.1375C30.7952 36.8 30.1702 35.5625 29.1577 34.55C28.1327 33.525 26.8577 32.9 25.4577 32.725C25.4202 32.725 25.3702 32.7125 25.3327 32.7125L27.1452 30.425C27.3202 30.2 27.5077 29.9875 27.7077 29.7625L28.5577 29.875C31.2452 30.25 33.4077 32.3625 33.8327 35.0375L33.9702 35.8625Z" fill="#1AAB7B"/>
<path d="M29.7827 39.025C29.7827 40.4 29.2577 41.7125 28.2577 42.7C27.4952 43.475 26.4702 44 25.2202 44.15L22.1577 44.4875C20.4827 44.675 19.0452 43.2375 19.2327 41.55L19.5702 38.475C19.8702 35.7375 22.1577 33.9875 24.5827 33.9375C24.8202 33.925 25.0827 33.9375 25.3327 33.9625C26.3952 34.1 27.4202 34.5875 28.2827 35.4375C29.1202 36.275 29.5952 37.2625 29.7327 38.3C29.7577 38.55 29.7827 38.7875 29.7827 39.025Z" fill="#1AAB7B"/>
</svg>
